<?xml version="1.0" standalone="no"?>
<!DOCTYPE svg PUBLIC "-//W3C//DTD SVG 20010904//EN"
 "http://www.w3.org/TR/2001/REC-SVG-20010904/DTD/svg10.dtd">
<svg version="1.0" xmlns="http://www.w3.org/2000/svg"
 width="640.000000pt" height="640.000000pt" viewBox="0 0 640.000000 640.000000"
 preserveAspectRatio="xMidYMid meet">

<g transform="translate(0.000000,640.000000) scale(0.100000,-0.100000)"
fill="#000000" stroke="none">
<path d="M3037 5927 c-3 -7 -3 -283 -1 -613 3 -329 4 -607 4 -617 0 -10 4 -16
9 -13 4 3 14 -14 21 -37 16 -50 25 -63 34 -48 11 18 26 13 19 -6 -6 -16 -5
-17 11 -3 21 16 206 24 206 8 0 -5 11 -13 25 -18 18 -7 23 -14 18 -26 -4 -12
-3 -15 5 -10 9 5 12 -22 12 -106 0 -97 -3 -117 -20 -138 -11 -14 -20 -30 -20
-37 0 -8 -31 -13 -97 -15 -131 -4 -137 -2 -162 42 -18 32 -21 55 -21 146 -1
94 -3 105 -13 81 -7 -16 -15 -28 -19 -28 -5 1 -8 -1 -8 -4 0 -3 0 -455 0
-1005 l0 -1000 147 3 c147 3 147 3 154 28 3 13 10 23 16 22 15 -3 20 35 22
162 2 79 6 114 17 126 10 11 14 43 14 113 0 57 4 95 9 91 14 -8 22 27 25 112
3 58 7 78 20 85 12 7 16 24 16 76 0 48 5 76 19 97 12 20 20 60 25 115 6 78 16
122 16 70 0 -32 12 -18 16 19 5 41 42 171 52 185 5 6 12 25 16 41 4 17 10 39
13 49 5 18 1 19 -93 12 -80 -5 -103 -4 -120 8 -12 9 -24 13 -27 10 -8 -8 -16
64 -21 188 -4 106 -4 107 21 124 29 18 170 31 229 19 43 -8 52 -29 54 -127 2
-88 8 -117 21 -97 5 8 9 26 9 41 0 20 4 26 15 22 10 -4 15 0 15 14 0 10 9 31
20 45 11 14 20 31 20 39 0 18 -46 115 -59 122 -5 4 -12 20 -16 37 -4 17 -13
33 -20 35 -7 3 -16 24 -20 47 -6 34 -8 38 -15 22 -6 -16 -9 -12 -15 23 -4 26
-14 46 -26 52 -10 6 -19 20 -19 30 0 11 -9 37 -20 57 -11 21 -20 43 -20 49 0
6 -7 17 -15 24 -8 7 -15 23 -15 35 0 13 -7 25 -15 29 -8 3 -18 24 -21 47 -5
28 -13 43 -25 46 -10 3 -17 13 -16 23 1 18 -22 79 -54 141 -11 20 -19 46 -19
57 0 12 -6 25 -13 29 -8 4 -17 23 -20 41 -4 19 -16 45 -27 59 -11 14 -20 34
-20 45 0 10 -6 31 -14 46 -7 15 -17 42 -21 61 -4 19 -14 41 -21 49 -8 7 -14
27 -14 44 0 17 -7 36 -15 42 -13 10 -20 33 -24 79 -1 5 -5 6 -10 3 -5 -3 -15
27 -22 67 -9 46 -19 71 -27 70 -12 -3 -13 2 -18 71 -1 21 -7 42 -14 46 -7 4
-15 29 -18 56 -5 54 -26 95 -35 71z m332 -977 c5 -16 14 -30 19 -30 11 0 9
-187 -3 -240 -4 -19 -13 -38 -19 -42 -19 -13 -256 -10 -256 3 0 6 -7 9 -15 5
-12 -4 -15 3 -15 29 0 21 5 35 13 36 10 0 10 2 0 6 -22 8 -17 152 8 212 l22
51 117 0 118 0 11 -30z m-312 -217 c-2 -16 -4 -5 -4 22 0 28 2 40 4 28 2 -13
2 -35 0 -50z m370 -365 c-2 -24 -4 -5 -4 42 0 47 2 66 4 43 2 -24 2 -62 0 -85z
m-72 -794 c33 -13 45 -59 45 -169 0 -68 -4 -104 -10 -100 -9 6 -14 -8 -11 -28
1 -5 -9 -17 -21 -28 l-23 -19 23 -6 c17 -5 22 -14 23 -43 0 -30 2 -33 9 -16
15 32 4 -207 -11 -248 l-13 -37 -117 0 -117 0 -20 33 c-39 61 -32 319 7 310
15 -4 14 7 -3 26 -18 22 -36 120 -36 198 0 64 18 116 42 126 19 8 213 8 233 1z"/>
<path d="M3091 4864 c0 -11 3 -14 6 -6 3 7 2 16 -1 19 -3 4 -6 -2 -5 -13z"/>
<path d="M3381 3504 c0 -11 3 -14 6 -6 3 7 2 16 -1 19 -3 4 -6 -2 -5 -13z"/>
<path d="M3383 3400 c0 -25 2 -35 4 -22 2 12 2 32 0 45 -2 12 -4 2 -4 -23z"/>
<path d="M3238 3233 c6 -2 18 -2 25 0 6 3 1 5 -13 5 -14 0 -19 -2 -12 -5z"/>
<path d="M659 4898 c-1 -35 0 -272 1 -528 1 -384 4 -468 16 -481 20 -23 17
-62 -7 -90 -20 -23 -21 -33 -17 -194 3 -182 9 -208 36 -175 14 16 31 20 100
22 111 3 115 -2 120 -131 4 -90 2 -101 -17 -120 -18 -18 -33 -21 -105 -21 -63
0 -87 4 -96 15 -33 39 -35 0 -31 -563 1 -306 5 -560 7 -564 9 -14 58 -8 99 11
22 10 57 21 77 25 20 3 42 13 49 22 6 8 18 70 24 137 13 128 29 251 47 352 6
33 16 96 23 140 7 44 17 93 24 108 6 16 11 43 11 60 0 18 9 64 21 102 11 39
30 102 41 140 46 152 82 243 138 343 19 34 22 47 13 60 -13 19 -166 324 -182
362 -6 14 -15 32 -20 40 -7 14 -17 35 -64 140 -30 68 -95 226 -117 285 -13 33
-29 74 -35 90 -12 27 -77 226 -111 335 -7 25 -16 64 -20 88 -10 66 -24 60 -25
-10z m215 -734 c20 -20 23 -203 4 -222 -7 -7 -43 -12 -93 -12 -50 0 -86 5 -93
12 -16 16 -16 178 0 213 11 24 15 25 89 25 57 0 82 -4 93 -16z m36 -1154 c5
-8 10 -63 10 -122 0 -136 -1 -138 -119 -138 -54 0 -91 4 -99 12 -8 8 -12 51
-12 130 0 101 2 118 18 128 27 16 191 9 202 -10z"/>
<path d="M592 4921 c-1 -14 -9 -32 -18 -42 -9 -10 -22 -44 -29 -76 -7 -32 -18
-71 -24 -88 -5 -16 -29 -84 -51 -150 -23 -66 -48 -132 -56 -147 -8 -14 -14
-33 -14 -42 0 -8 -10 -37 -22 -63 -37 -84 -47 -106 -89 -208 -23 -55 -47 -111
-54 -125 -24 -44 -135 -279 -135 -284 0 -3 -16 -32 -35 -65 -35 -59 -46 -123
-25 -136 33 -21 156 -349 180 -483 5 -29 14 -60 19 -70 5 -9 12 -42 16 -72 4
-30 13 -77 20 -105 7 -27 23 -117 34 -200 12 -82 28 -193 36 -245 8 -52 18
-147 21 -210 4 -63 11 -121 17 -128 10 -13 61 -8 82 8 6 4 34 15 62 24 29 10
60 27 68 39 13 19 15 131 15 867 0 826 -1 846 -20 875 -24 36 -26 73 -5 102
13 19 15 90 12 535 -1 282 -3 502 -5 489z m-45 -1491 c15 -30 17 -203 3 -231
-10 -17 -22 -19 -110 -19 -121 0 -120 -1 -120 133 0 123 9 135 100 139 112 5
114 5 127 -22z"/>
<path d="M1762 3669 c-2 -290 0 -342 13 -362 8 -13 12 -26 9 -30 -3 -3 2 -19
12 -36 18 -30 18 -31 -4 -51 -12 -12 -22 -28 -22 -36 0 -8 -4 -13 -9 -10 -10
7 -20 -38 -16 -74 1 -14 3 -193 4 -397 l1 -373 32 0 c17 0 39 7 48 15 9 8 50
18 95 22 l80 8 6 36 c3 21 13 44 22 54 11 10 17 33 17 59 0 25 6 49 14 55 8 7
17 26 20 44 8 41 50 145 65 160 6 6 11 21 11 33 0 12 6 27 14 33 8 7 18 26 21
42 4 17 13 33 21 36 8 3 14 13 14 23 0 10 10 24 23 33 l22 15 -20 38 c-11 21
-27 46 -36 55 -9 9 -20 29 -25 45 -7 25 -9 20 -14 -38 -7 -96 -20 -108 -115
-108 -92 0 -95 5 -95 127 0 136 -1 133 87 133 l74 0 -28 53 c-15 28 -34 56
-40 60 -7 4 -13 18 -13 31 0 13 -9 33 -20 46 -11 13 -20 33 -20 44 0 12 -9 29
-20 39 -11 9 -20 24 -20 33 0 9 -9 29 -21 45 -11 16 -17 29 -14 29 3 0 -3 13
-14 29 -12 16 -21 40 -21 54 0 13 -7 30 -15 37 -8 7 -20 31 -26 54 -6 22 -16
44 -21 47 -6 4 -13 27 -15 53 -4 28 -11 46 -18 46 -8 0 -16 18 -20 40 -4 22
-10 42 -13 44 -4 2 -8 -148 -10 -335z m186 -675 c21 -6 22 -11 22 -100 0 -132
-5 -141 -77 -146 -32 -1 -68 -2 -80 0 -34 5 -53 58 -53 151 0 75 2 82 23 91
25 10 131 13 165 4z"/>
<path d="M3534 1278 c39 -38 45 -50 51 -102 5 -34 3 -78 -3 -105 -13 -58 -9
-62 13 -15 25 54 18 159 -15 207 -23 33 -57 57 -81 57 -5 0 11 -19 35 -42z"/>
<path d="M320 1140 c0 -129 3 -170 13 -170 9 0 12 41 12 170 0 129 -3 170 -12
170 -10 0 -13 -41 -13 -170z"/>
<path d="M411 1289 c6 -12 9 -39 7 -60 -4 -45 15 -49 20 -5 5 39 -5 73 -23 80
-13 5 -14 2 -4 -15z"/>
<path d="M775 1140 c0 -107 4 -170 10 -170 6 0 10 63 10 170 0 107 -4 170 -10
170 -6 0 -10 -63 -10 -170z"/>
<path d="M860 1291 c5 -11 10 -38 10 -61 0 -25 4 -39 10 -35 23 14 5 115 -21
115 -6 0 -6 -7 1 -19z"/>
<path d="M1764 1296 c-4 -10 -2 -27 5 -39 19 -38 83 -231 86 -257 1 -14 9 -26
18 -28 10 -2 17 -1 17 3 0 8 -111 329 -116 334 -2 2 -6 -4 -10 -13z"/>
<path d="M3951 1140 c0 -159 2 -170 19 -170 16 0 17 4 10 29 -11 40 -10 272 1
293 8 15 6 18 -11 18 -20 0 -20 -5 -19 -170z"/>
<path d="M4049 1301 c7 -5 17 -15 22 -22 6 -10 9 -8 9 9 0 16 -6 22 -22 22
-17 0 -19 -3 -9 -9z"/>
<path d="M3365 1227 c-17 -42 -19 -106 -5 -159 13 -47 61 -98 92 -98 l23 1
-25 13 c-54 30 -90 146 -70 231 12 51 4 58 -15 12z"/>
<path d="M645 1200 c26 -27 30 -40 33 -101 5 -80 22 -76 22 4 0 53 -20 101
-49 117 -34 18 -36 11 -6 -20z"/>
<path d="M1040 1218 c0 -9 -3 -24 -7 -34 -4 -11 -3 -15 4 -11 11 7 64 -134 68
-178 1 -11 10 -22 20 -24 12 -2 16 2 13 10 -3 8 -22 64 -43 124 -37 109 -55
145 -55 113z"/>
<path d="M1490 1221 c0 -5 5 -13 10 -16 6 -3 10 -2 10 4 0 5 -4 13 -10 16 -5
3 -10 2 -10 -4z"/>
<path d="M2079 1211 c15 -27 31 -36 31 -17 0 8 -9 20 -21 26 -19 11 -20 10
-10 -9z"/>
<path d="M2400 1101 c0 -98 3 -131 13 -131 16 0 14 253 -2 258 -8 3 -11 -38
-11 -127z"/>
<path d="M2630 1225 c-1 -3 -1 -60 -1 -127 0 -94 3 -124 13 -126 10 -2 13 25
13 128 0 97 -3 130 -12 130 -7 0 -13 -2 -13 -5z"/>
<path d="M2717 1218 c6 -7 13 -20 16 -28 3 -9 6 -3 6 13 1 19 -4 27 -15 27
-12 0 -14 -4 -7 -12z"/>
<path d="M2810 1219 c0 -5 9 -29 19 -53 11 -23 31 -76 45 -117 18 -53 27 -69
32 -56 4 10 2 28 -4 40 -6 12 -22 59 -37 104 -14 45 -33 84 -41 87 -7 3 -14 1
-14 -5z"/>
<path d="M2978 1224 c-11 -11 2 -249 14 -249 7 0 10 28 8 90 -2 50 -3 107 -2
128 1 34 -6 46 -20 31z"/>
<path d="M3070 1220 c0 -6 14 -38 31 -72 27 -53 31 -70 27 -120 -4 -48 -2 -58
11 -56 27 5 15 118 -21 193 -27 59 -48 82 -48 55z"/>
<path d="M3180 1203 c0 -26 1 -26 14 -8 14 20 12 35 -5 35 -5 0 -9 -12 -9 -27z"/>
<path d="M3680 1225 c-1 -3 -1 -60 -1 -127 0 -94 3 -124 13 -126 10 -2 13 25
13 128 0 97 -3 130 -12 130 -7 0 -13 -2 -13 -5z"/>
<path d="M3770 1223 c0 -5 5 -15 10 -23 8 -12 10 -11 10 8 0 12 -4 22 -10 22
-5 0 -10 -3 -10 -7z"/>
<path d="M4147 1224 c-5 -6 11 -43 79 -175 13 -26 24 -54 24 -63 0 -10 8 -16
21 -16 11 0 19 3 17 8 -18 39 -129 252 -131 252 -2 0 -6 -3 -10 -6z"/>
<path d="M4260 1214 c0 -8 5 -12 10 -9 6 4 8 11 5 16 -9 14 -15 11 -15 -7z"/>
<path d="M4470 1222 c0 -4 7 -16 15 -26 15 -19 15 -19 15 1 0 11 -7 23 -15 27
-8 3 -15 2 -15 -2z"/>
<path d="M4574 1100 c1 -79 5 -130 11 -130 6 0 10 50 10 130 0 88 -4 130 -11
130 -7 0 -11 -41 -10 -130z"/>
<path d="M4660 1221 c0 -6 5 -13 10 -16 6 -3 10 1 10 9 0 9 -4 16 -10 16 -5 0
-10 -4 -10 -9z"/>
<path d="M4760 1228 c0 -1 -1 -60 -3 -131 -2 -107 0 -127 13 -127 13 0 15 20
13 127 -1 78 -6 129 -13 131 -5 2 -10 2 -10 0z"/>
<path d="M4943 1099 c1 -81 5 -129 12 -129 15 0 14 248 -2 254 -9 4 -11 -28
-10 -125z"/>
<path d="M5127 1103 c2 -96 5 -129 15 -131 10 -2 13 25 11 125 -1 97 -5 129
-15 131 -10 2 -13 -24 -11 -125z"/>
<path d="M5220 1216 c0 -8 5 -18 10 -21 6 -3 10 3 10 14 0 12 -4 21 -10 21 -5
0 -10 -6 -10 -14z"/>
<path d="M5305 1209 c4 -13 11 -26 15 -29 4 -3 36 -51 70 -108 34 -57 64 -102
66 -100 7 7 6 248 -1 245 -4 -1 -7 -45 -6 -97 2 -67 -1 -92 -9 -84 -5 5 -34
50 -63 99 -51 87 -87 124 -72 74z"/>
<path d="M5665 1206 c20 -30 25 -32 25 -11 0 8 -9 19 -21 25 -20 11 -20 11 -4
-14z"/>
<path d="M5760 1225 c-1 -3 -1 -60 -1 -127 0 -94 3 -124 13 -126 10 -2 13 25
13 128 0 97 -3 130 -12 130 -7 0 -13 -2 -13 -5z"/>
<path d="M5850 1223 c0 -5 5 -15 10 -23 8 -12 10 -11 10 8 0 12 -4 22 -10 22
-5 0 -10 -3 -10 -7z"/>
<path d="M1267 1212 c-4 -5 7 -44 24 -88 16 -43 32 -96 35 -116 4 -21 12 -38
19 -38 18 0 26 12 16 24 -4 6 -23 56 -41 111 -34 103 -44 123 -53 107z"/>
<path d="M2226 1198 c-8 -33 -7 -45 4 -28 8 13 10 13 14 0 41 -119 56 -167 56
-182 0 -10 7 -18 15 -18 8 0 15 2 15 5 0 3 -18 58 -40 122 -22 65 -40 118 -40
120 0 2 -4 3 -9 3 -5 0 -11 -10 -15 -22z"/>
<path d="M1419 1188 c-2 -42 3 -53 48 -101 31 -33 43 -54 40 -68 -3 -10 -2
-21 3 -24 8 -5 20 27 20 53 0 8 -23 36 -51 63 -41 39 -50 54 -47 74 3 14 1 25
-3 25 -5 0 -10 -10 -10 -22z"/>
<path d="M2519 1196 c28 -33 31 -126 6 -191 -5 -13 0 -10 16 10 19 23 24 41
23 85 0 54 -23 110 -46 110 -7 0 -6 -5 1 -14z"/>
<path d="M1945 1155 c-26 -67 -5 -148 45 -175 18 -9 17 -7 -5 26 -20 29 -25
49 -25 96 0 33 5 68 10 79 7 11 7 19 1 19 -5 0 -17 -20 -26 -45z"/>
<path d="M4346 1171 c-29 -56 -16 -144 28 -180 21 -17 20 -13 -4 34 -22 43
-26 99 -10 141 15 38 5 42 -14 5z"/>
<path d="M5536 1178 c-23 -33 -21 -125 4 -165 27 -45 42 -42 19 4 -21 40 -25
116 -9 157 12 32 6 33 -14 4z"/>
<path d="M512 1142 c-7 -24 -10 -58 -6 -78 7 -41 48 -94 72 -94 14 0 14 2 1
13 -35 28 -44 53 -49 126 l-6 76 -12 -43z"/>
<path d="M390 1164 c0 -3 9 -13 20 -22 26 -21 42 -86 29 -120 -14 -36 -3 -39
15 -3 20 38 20 64 1 101 -17 33 -65 65 -65 44z"/>
<path d="M835 1160 c-3 -5 0 -10 8 -10 38 0 67 -82 47 -135 -11 -29 -10 -29 7
-12 13 12 18 33 18 68 0 43 -4 54 -28 75 -31 26 -42 29 -52 14z"/>
<path d="M4040 1151 c0 -6 5 -13 10 -16 6 -3 10 1 10 9 0 9 -4 16 -10 16 -5 0
-10 -4 -10 -9z"/>
<path d="M2695 1100 c3 -5 10 -10 16 -10 5 0 9 5 9 10 0 6 -7 10 -16 10 -8 0
-12 -4 -9 -10z"/>
<path d="M4630 1100 c19 -13 30 -13 30 0 0 6 -10 10 -22 10 -19 0 -20 -2 -8
-10z"/>
<path d="M5195 1100 c4 -6 11 -8 16 -5 14 9 11 15 -7 15 -8 0 -12 -5 -9 -10z"/>
<path d="M5820 1100 c19 -13 30 -13 30 0 0 6 -10 10 -22 10 -19 0 -20 -2 -8
-10z"/>
<path d="M3738 1093 c6 -2 18 -2 25 0 6 3 1 5 -13 5 -14 0 -19 -2 -12 -5z"/>
<path d="M2191 1074 c0 -11 3 -14 6 -6 3 7 2 16 -1 19 -3 4 -6 -2 -5 -13z"/>
<path d="M1207 1023 c-2 -10 -8 -26 -12 -35 -5 -13 -2 -18 9 -18 12 0 16 10
16 35 0 38 -5 45 -13 18z"/>
<path d="M2172 1015 c-16 -34 -15 -45 2 -45 9 0 14 12 14 35 0 19 -1 35 -2 35
-2 0 -8 -11 -14 -25z"/>
<path d="M1672 1006 c-15 -34 -15 -36 2 -36 20 0 24 10 17 39 l-6 24 -13 -27z"/>
<path d="M977 1006 c-11 -27 -8 -36 8 -36 16 0 17 5 6 34 -7 18 -8 18 -14 2z"/>
<path d="M1410 1014 c0 -14 27 -50 33 -44 3 3 -3 16 -13 30 -11 14 -20 20 -20
14z"/>
<path d="M2092 1000 c-8 -13 -8 -20 -2 -20 6 0 13 7 17 15 9 24 -1 27 -15 5z"/>
<path d="M2732 999 c-7 -11 -11 -24 -8 -27 10 -9 28 15 24 32 -2 14 -5 13 -16
-5z"/>
<path d="M4072 999 c-7 -11 -11 -24 -8 -27 10 -9 28 15 24 32 -2 14 -5 13 -16
-5z"/>
<path d="M4872 999 c-7 -11 -11 -24 -8 -27 10 -9 28 15 24 32 -2 14 -5 13 -16
-5z"/>
<path d="M5311 1013 c-1 -6 -4 -18 -7 -27 -4 -11 -1 -16 10 -16 18 0 19 6 6
35 -5 11 -9 15 -9 8z"/>
<path d="M5863 1001 c-9 -14 -9 -22 -2 -27 15 -9 21 1 17 26 -3 21 -3 21 -15
1z"/>
<path d="M2806 995 c-9 -23 -8 -25 9 -25 17 0 19 9 6 28 -7 11 -10 10 -15 -3z"/>
<path d="M4486 995 c-3 -8 -1 -15 4 -15 6 0 10 7 10 15 0 8 -2 15 -4 15 -2 0
-6 -7 -10 -15z"/>
<path d="M4677 996 c-4 -10 -5 -21 -2 -24 9 -9 17 6 13 25 -3 17 -4 17 -11 -1z"/>
<path d="M5057 996 c-4 -10 -5 -21 -2 -24 9 -9 17 6 13 25 -3 17 -4 17 -11 -1z"/>
<path d="M5231 996 c-8 -9 -11 -19 -7 -23 9 -9 29 13 24 27 -2 8 -8 7 -17 -4z"/>
<path d="M5676 1001 c-4 -7 -5 -15 -2 -18 9 -9 19 4 14 18 -4 11 -6 11 -12 0z"/>
<path d="M4146 993 c-11 -11 -6 -23 9 -23 8 0 15 4 15 9 0 13 -16 22 -24 14z"/>
<path d="M77 753 c-4 -3 -7 -10 -7 -15 0 -4 1357 -8 3015 -8 1763 0 3015 4
3015 9 0 5 -7 12 -16 15 -22 8 -5999 8 -6007 -1z"/>
<path d="M70 660 c0 -7 1012 -10 3016 -10 2007 0 3013 3 3009 10 -9 14 -6025
14 -6025 0z"/>
<path d="M3210 381 l0 -79 -31 11 c-28 11 -33 10 -50 -12 -26 -32 -25 -95 1
-121 22 -22 36 -25 45 -10 3 6 -1 10 -9 10 -43 0 -61 70 -27 111 18 22 19 22
45 6 28 -19 35 -61 16 -97 -7 -13 -6 -19 5 -24 13 -5 15 16 15 139 0 80 -2
145 -5 145 -3 0 -5 -36 -5 -79z"/>
<path d="M4653 315 c0 -93 2 -128 6 -92 3 31 4 99 0 150 -5 80 -6 72 -6 -58z"/>
<path d="M447 433 c-4 -3 -7 -64 -7 -135 l0 -128 45 0 c34 0 47 5 55 19 15 30
12 82 -7 103 -13 14 -14 21 -5 30 17 17 15 84 -4 102 -15 16 -65 22 -77 9z
m61 -19 c15 -10 22 -25 22 -48 0 -39 -19 -59 -52 -54 -19 2 -23 10 -26 47 -5
72 10 87 56 55z m20 -136 c17 -17 15 -64 -4 -83 -9 -9 -28 -15 -43 -13 -24 3
-26 7 -29 56 l-3 52 33 0 c19 0 39 -5 46 -12z"/>
<path d="M2080 430 c0 -5 11 -10 25 -10 l24 0 4 -127 3 -128 2 128 2 127 24 0
c14 0 28 5 31 10 4 6 -17 10 -54 10 -34 0 -61 -4 -61 -10z"/>
<path d="M2706 418 c-9 -12 -16 -33 -16 -45 0 -23 8 -33 68 -79 36 -29 43 -71
16 -98 -18 -19 -55 -21 -72 -4 -9 9 -12 9 -12 0 0 -18 37 -33 65 -26 55 14 63
97 14 138 -17 14 -34 26 -38 26 -17 0 -31 51 -21 71 11 20 18 22 60 20 20 -2
22 0 10 8 -25 17 -58 12 -74 -11z"/>
<path d="M3977 426 c-10 -25 -9 -38 3 -31 9 6 27 -46 32 -95 3 -22 -1 -25 -27
-25 -29 0 -30 2 -28 40 2 38 1 37 -17 -20 -11 -33 -22 -76 -25 -95 -4 -29 -2
-27 11 13 15 45 17 47 53 47 44 0 56 -11 66 -60 5 -19 10 -29 12 -22 4 11 -44
191 -66 246 -7 18 -8 18 -14 2z"/>
<path d="M4470 430 c0 -5 11 -10 25 -10 l24 0 4 -127 3 -128 2 128 2 127 24 0
c14 0 28 5 31 10 4 6 -17 10 -54 10 -34 0 -61 -4 -61 -10z"/>
<path d="M5078 429 c-12 -7 -18 -22 -18 -49 0 -35 5 -43 43 -71 47 -34 57 -53
47 -88 -9 -36 -33 -48 -70 -34 -39 14 -40 -1 -1 -17 36 -15 67 -1 82 37 17 44
2 80 -47 114 -31 21 -44 37 -44 54 0 34 26 56 57 49 18 -5 24 -3 19 5 -9 14
-45 14 -68 0z"/>
<path d="M1592 298 l2 -133 3 108 c2 59 7 107 12 107 4 0 36 -45 71 -100 35
-55 67 -100 71 -100 4 0 6 33 4 73 -2 39 -5 97 -7 127 -1 34 -4 13 -7 -54 l-6
-109 -31 49 c-17 27 -48 75 -67 107 -20 31 -39 57 -42 57 -3 0 -4 -60 -3 -132z"/>
<path d="M3600 350 c-3 -19 -2 -69 1 -110 l6 -75 1 63 c2 46 6 64 17 69 14 5
14 7 1 22 -8 9 -16 27 -18 41 -3 21 -5 19 -8 -10z"/>
<path d="M2869 337 c-5 -44 0 -87 11 -87 5 0 7 9 5 20 -2 12 2 23 10 27 8 3
15 9 15 15 0 5 -4 6 -10 3 -10 -6 -14 7 -11 32 1 6 -3 14 -8 17 -5 3 -10 -9
-12 -27z"/>
<path d="M626 304 c-9 -8 -16 -23 -15 -32 0 -13 3 -12 11 5 12 25 31 35 53 27
15 -6 21 -44 7 -44 -5 0 -17 -7 -28 -15 -17 -14 -16 -14 13 -1 41 21 45 28 27
54 -18 26 -46 28 -68 6z"/>
<path d="M775 295 c-14 -13 -25 -33 -25 -44 0 -54 40 -98 77 -84 15 6 13 8
-12 13 -66 12 -69 120 -3 120 17 0 27 4 23 10 -10 17 -35 11 -60 -15z"/>
<path d="M910 300 c-42 -42 -12 -152 37 -133 16 7 16 8 -2 11 -45 8 -62 83
-26 116 40 37 84 -22 63 -83 -8 -23 -7 -31 4 -35 11 -4 14 8 14 64 0 55 -3 68
-14 64 -8 -3 -17 -1 -21 5 -10 17 -33 13 -55 -9z"/>
<path d="M1227 313 c-16 -16 -6 -58 20 -79 31 -24 26 -54 -9 -54 -16 0 -19 -3
-11 -11 8 -8 17 -8 32 0 29 16 27 56 -4 77 -31 20 -34 54 -5 54 11 0 20 5 20
10 0 11 -33 14 -43 3z"/>
<path d="M1346 295 c-39 -60 -4 -149 52 -127 13 5 11 8 -13 12 -26 4 -31 11
-39 48 -7 35 -6 46 9 62 22 24 29 25 50 3 16 -15 15 -18 -7 -35 l-23 -19 28
12 c32 14 34 29 9 52 -26 24 -47 21 -66 -8z"/>
<path d="M1836 298 c-34 -48 -8 -138 38 -138 21 0 56 49 56 77 0 69 -61 108
-94 61z m64 -8 c36 -36 20 -110 -25 -110 -43 0 -62 75 -28 112 21 23 28 23 53
-2z"/>
<path d="M2221 314 c-2 -25 46 -147 53 -135 4 6 3 18 -3 25 -6 8 -20 38 -30
67 -11 30 -20 49 -20 43z"/>
<path d="M2437 291 c-24 -41 -21 -78 8 -106 29 -30 39 -31 65 -5 42 42 15 140
-38 140 -10 0 -25 -13 -35 -29z m61 3 c40 -28 24 -114 -22 -114 -40 0 -59 67
-30 108 18 26 23 27 52 6z"/>
<path d="M3300 300 c-39 -39 -14 -140 35 -140 27 0 25 19 -2 22 -24 3 -29 9
-37 46 -8 37 -6 46 11 64 17 16 24 18 42 9 29 -16 26 -28 -10 -46 -17 -9 -29
-19 -26 -22 9 -8 67 30 67 43 0 17 -28 44 -46 44 -8 0 -23 -9 -34 -20z"/>
<path d="M3475 310 c-3 -5 3 -10 14 -10 20 0 24 -11 34 -95 2 -16 5 -6 6 23 0
29 -4 62 -9 73 -11 20 -35 25 -45 9z"/>
<path d="M3702 308 c-20 -20 -14 -42 19 -71 36 -31 34 -50 -7 -57 -27 -5 -28
-6 -6 -12 24 -7 52 13 52 38 0 8 -14 28 -32 44 -26 24 -29 31 -19 44 8 9 17
13 22 10 5 -3 9 0 9 5 0 15 -23 14 -38 -1z"/>
<path d="M4148 307 c-27 -10 -28 -14 -27 -76 l2 -66 7 50 c8 62 18 85 36 85 8
0 14 5 14 10 0 6 -1 10 -2 9 -2 -1 -15 -6 -30 -12z"/>
<path d="M4236 298 c-34 -48 -8 -138 38 -138 28 0 26 19 -1 22 -22 2 -28 8
-27 26 0 12 -3 22 -8 22 -15 0 -8 47 11 64 20 18 51 12 51 -11 0 -8 -10 -23
-22 -34 -23 -19 -23 -19 9 -2 37 21 41 33 15 56 -25 23 -48 21 -66 -5z"/>
<path d="M4685 310 c-3 -5 3 -10 14 -10 22 0 29 -16 34 -90 3 -34 4 -30 5 21
2 64 -8 89 -34 89 -7 0 -16 -4 -19 -10z"/>
<path d="M4816 298 c-9 -12 -16 -27 -16 -33 1 -5 8 3 16 18 17 31 41 33 58 3
8 -14 8 -20 0 -23 -6 -2 -20 -11 -30 -19 -15 -12 -11 -11 16 2 46 22 45 20 26
49 -20 31 -50 32 -70 3z"/>
<path d="M5236 298 c-23 -32 -20 -94 4 -118 23 -23 29 -24 50 -10 12 8 9 10
-12 10 -50 0 -66 87 -21 117 19 13 24 12 43 -7 19 -19 21 -30 16 -66 -3 -24
-1 -46 4 -49 6 -4 10 21 10 64 0 56 -3 69 -14 65 -8 -3 -17 -1 -21 5 -11 18
-43 12 -59 -11z"/>
<path d="M5430 311 c-8 -6 -17 -8 -21 -5 -10 6 -15 -55 -8 -101 6 -36 6 -34 8
20 1 47 5 63 19 72 30 18 44 -1 52 -68 l7 -64 2 52 c0 28 4 59 8 69 4 11 3 15
-4 11 -6 -4 -13 0 -17 8 -6 17 -24 19 -46 6z"/>
<path d="M5510 312 c0 -5 9 -12 19 -15 17 -4 21 -16 24 -68 3 -59 4 -58 3 11
-1 70 -3 75 -23 78 -13 2 -23 -1 -23 -6z"/>
<path d="M5636 298 c-23 -32 -20 -90 4 -116 22 -23 45 -28 55 -12 4 6 -5 10
-20 10 -30 0 -43 24 -25 45 11 13 10 14 -4 9 -23 -9 -21 38 3 60 22 20 49 12
61 -18 7 -16 9 -17 9 -4 1 22 -26 48 -49 48 -10 0 -26 -10 -34 -22z"/>
<path d="M1072 249 c-2 -68 13 -100 39 -83 9 5 7 9 -7 14 -15 6 -20 20 -25 71
l-6 64 -1 -66z"/>
<path d="M2357 264 c-8 -27 -18 -49 -22 -49 -5 0 -15 20 -24 45 -13 38 -16 41
-19 20 -2 -13 1 -26 7 -28 6 -2 13 -19 17 -38 3 -19 11 -33 17 -31 11 3 50
118 42 125 -2 2 -10 -18 -18 -44z"/>
<path d="M2960 254 c0 -73 16 -100 51 -88 13 4 27 7 32 6 4 -1 6 31 5 70 -2
67 -2 68 -5 18 -5 -59 -16 -80 -44 -80 -20 0 -26 16 -28 80 -3 67 -11 62 -11
-6z"/>
<path d="M3442 240 l1 -75 7 65 c4 36 3 69 -2 75 -4 5 -7 -25 -6 -65z"/>
<path d="M1138 240 c-1 -33 0 -60 5 -60 8 0 10 9 11 73 2 68 -12 58 -16 -13z"/>
<path d="M5675 250 c-3 -6 1 -7 9 -4 18 7 21 14 7 14 -6 0 -13 -4 -16 -10z"/>
<path d="M600 242 c0 -48 46 -91 78 -73 15 9 13 10 -9 11 -28 0 -55 23 -45 38
3 6 -1 15 -9 22 -9 8 -15 9 -15 2z"/>
<path d="M4798 219 c6 -38 43 -65 69 -50 16 9 15 10 -8 11 -26 0 -51 19 -48
36 3 18 -1 34 -9 34 -5 0 -7 -14 -4 -31z"/>
<path d="M2870 209 c0 -18 3 -29 7 -25 10 10 11 46 1 52 -4 3 -8 -9 -8 -27z"/>
<path d="M1598 3 c881 -2 2323 -2 3205 0 881 1 160 2 -1603 2 -1763 0 -2484
-1 -1602 -2z"/>
</g>
</svg>
